<svg width="279" height="53" viewBox="0 0 279 53" fill="none" xmlns="http://www.w3.org/2000/svg">
<path d="M9.12 40.12L8.616 29.032L35.04 1.6H45.552L23.592 24.928L18.408 30.616L9.12 40.12ZM0.768 52V1.6H10.128V52H0.768ZM35.904 52L16.608 29.032L22.8 22.192L46.848 52H35.904ZM53.2211 52V1.6H73.9571C78.4211 1.6 82.2371 2.32 85.4051 3.76C88.6211 5.2 91.0931 7.264 92.8211 9.952C94.5491 12.64 95.4131 15.832 95.4131 19.528C95.4131 23.224 94.5491 26.416 92.8211 29.104C91.0931 31.792 88.6211 33.856 85.4051 35.296C82.2371 36.736 78.4211 37.456 73.9571 37.456H58.4051L62.5811 33.064V52H53.2211ZM62.5811 34.072L58.4051 29.536H73.5251C77.6531 29.536 80.7491 28.672 82.8131 26.944C84.9251 25.168 85.9811 22.696 85.9811 19.528C85.9811 16.312 84.9251 13.84 82.8131 12.112C80.7491 10.384 77.6531 9.52 73.5251 9.52H58.4051L62.5811 4.912V34.072ZM105.44 52.504C103.808 52.504 102.416 51.952 101.264 50.848C100.112 49.696 99.5363 48.256 99.5363 46.528C99.5363 44.704 100.112 43.264 101.264 42.208C102.416 41.104 103.808 40.552 105.44 40.552C107.072 40.552 108.464 41.104 109.616 42.208C110.768 43.264 111.344 44.704 111.344 46.528C111.344 48.256 110.768 49.696 109.616 50.848C108.464 51.952 107.072 52.504 105.44 52.504ZM142.924 52.72C139.084 52.72 135.508 52.096 132.196 50.848C128.932 49.552 126.076 47.752 123.628 45.448C121.228 43.096 119.356 40.336 118.012 37.168C116.668 34 115.996 30.544 115.996 26.8C115.996 23.056 116.668 19.6 118.012 16.432C119.356 13.264 121.252 10.528 123.7 8.224C126.148 5.872 129.004 4.072 132.268 2.824C135.532 1.528 139.108 0.879997 142.996 0.879997C147.124 0.879997 150.892 1.6 154.3 3.04C157.708 4.432 160.588 6.52 162.94 9.304L156.892 14.992C155.068 13.024 153.028 11.56 150.772 10.6C148.516 9.592 146.068 9.088 143.428 9.088C140.788 9.088 138.364 9.52 136.156 10.384C133.996 11.248 132.1 12.472 130.468 14.056C128.884 15.64 127.636 17.512 126.724 19.672C125.86 21.832 125.428 24.208 125.428 26.8C125.428 29.392 125.86 31.768 126.724 33.928C127.636 36.088 128.884 37.96 130.468 39.544C132.1 41.128 133.996 42.352 136.156 43.216C138.364 44.08 140.788 44.512 143.428 44.512C146.068 44.512 148.516 44.032 150.772 43.072C153.028 42.064 155.068 40.552 156.892 38.536L162.94 44.296C160.588 47.032 157.708 49.12 154.3 50.56C150.892 52 147.1 52.72 142.924 52.72ZM171.909 52V1.6H181.269V52H171.909ZM205.125 52V9.52H188.421V1.6H231.189V9.52H214.485V52H205.125ZM249.824 52V32.056L251.912 37.816L230.024 1.6H240.032L257.6 30.76H251.984L269.696 1.6H278.912L257.024 37.816L259.184 32.056V52H249.824Z" fill="#4682B4"/>
</svg>
